# xmcd
#
# Track frame offsets: 
#        150
#        16138
#        37145
#        47280
#        62213
#        68817
#        81202
#        89869
#        106080
#        125050
#
# Disc length: 1909 seconds
#
# Revision: 0
# Processed by: cddbd v1.5.2PL0 Copyright (c) Steve Scherf et al.
# Submitted via: ExactAudioCopy v0.95b4
#
DISCID=8507730a
DTITLE=Rocco DeLuca - Drugs 'N Hymns
DYEAR=2012
DGENRE=Blues
TTITLE0=Lucky
TTITLE1=My My
TTITLE2=Sibylle
TTITLE3=Amen
TTITLE4=Pray On
TTITLE5=Windows
TTITLE6=They Stride like Gods
TTITLE7=Snake Oil Salesman
TTITLE8=Gorky
TTITLE9=Drugs 'n Hymns
EXTD=
EXTT0=
EXTT1=
EXTT2=
EXTT3=
EXTT4=
EXTT5=
EXTT6=
EXTT7=
EXTT8=
EXTT9=
PLAYORDER=
